# xmcd CD database file
#
# Track frame offsets:
#	150
#	25350
#	49875
#	74700
#	92700
#	98287
#	113947
#	124575
#	134685
#	154050
#	179857
#	199732
#	221283
#	231873
#	259091
#
# Disc length: 3578 seconds
#
# Revision: 0
# Processed by: cddbd v1.5.1PL0 Copyright (c) Steve Scherf et al.
# Submitted via: CDex 1.51
#
DISCID=dd0df80f
DTITLE=Peter Danemo Kapell - Resonance
DYEAR=2004
DGENRE=Jazz
TTITLE0=Beardland
TTITLE1=Motvals
TTITLE2=Blåbärsharmoni
TTITLE3=To a redbricked house
TTITLE4=Samspel I
TTITLE5=Kontrarytm
TTITLE6=Samspel II
TTITLE7=Resonans-trä
TTITLE8=She would never dream of
TTITLE9=Seven of nine
TTITLE10=Calm
TTITLE11=Wallgren
TTITLE12=Resonans-mässing
TTITLE13=Tyr this for size
TTITLE14=Resonans-sträng
EXTD=YEAR: 2004
EXTT0=
EXTT1=
EXTT2=
EXTT3=
EXTT4=
EXTT5=
EXTT6=
EXTT7=
EXTT8=
EXTT9=
EXTT10=
EXTT11=
EXTT12=
EXTT13=
EXTT14=
PLAYORDER=
